<?xml version="1.0" encoding="utf-8"?>
<svg viewBox="61.7225 48.8829 46.0941 23.2934" xmlns="http://www.w3.org/2000/svg">
  <g transform="matrix(1.0406897068023682, 0, 0, 1.0406897068023682, -2.6043262481689453, -10.057225227355957)">
    <g transform="matrix(-0.16424892053678777, 0.023214500544705738, 0.022847435724012072, 0.16165185147302258, 103.99859303893102, 41.625792718659184)">
      <g>
        <path id="dcs1" d="M115.186,154.584c-18.646-5.771-39.065-9.234-58.656-6.832 c26.928-15.306,53.292-25.875,77.644-33.091c13.661-8.407,34.943-16.563,66.831-23.815 c-26.911,0.513-107.035,10.481-187.028,69.734c59.061-14.621,132.635,25.121,132.635,25.121S122.893,172.417,115.186,154.584z" fill="#FF4F00"/>
        <path id="kcs" d="M269.484,108.943c-26.577-4.281-107.194-8.722-196.451,35.36 c60.719-3.882,126.049,48.312,126.049,48.312S106.478,116.264,269.484,108.943z" fill="#CCCC33"/>
      </g>
    </g>
  </g>
</svg>